<?xml version="1.0" encoding="utf-8"?>
<!-- Generator: Adobe Illustrator 24.3.0, SVG Export Plug-In . SVG Version: 6.00 Build 0)  -->
<svg version="1.1" id="logo" xmlns="http://www.w3.org/2000/svg" xmlns:xlink="http://www.w3.org/1999/xlink" x="0px" y="0px"
	 viewBox="0 0 1000 266" style="enable-background:new 0 0 1000 266;" xml:space="preserve">
<style type="text/css">
	.st0{fill:#F1FAEE;}
</style>
<g>
	<path class="st0" d="M42.79,132.95c8.82-13.01,17.65-26.02,26.43-39.06c0.66-0.97,1.33-1.36,2.54-1.36
		c13.05,0.05,26.1,0.05,39.15,0c1.38-0.01,1.87,0.22,1.86,1.76c-0.07,13.11-0.07,26.22,0,39.33c0.01,1.45-0.34,1.82-1.8,1.81
		c-22.36-0.05-44.71-0.04-67.07-0.03c-0.7,0-1.4,0.05-2.1,0.07c-0.98-0.46,0.2-0.84,0.04-1.27
		C42.16,133.78,42.5,133.38,42.79,132.95z M70.02,102c3.39,0,6.54,0,9.7,0c2.16,0.01,4.32-0.05,6.47,0.05
		c1.2,0.06,1.95-0.31,2.53-1.35c0.54-0.99,1.25-1.9,2.05-3.1c-3.18,0.12-6.06-0.22-8.94,0.2c-2.78-0.28-5.57-0.07-8.36-0.12
		c-0.36-0.01-0.69,0.08-0.85,0.47C71.64,99.26,70.83,100.48,70.02,102z M75.53,107.15c-2.74-0.04-5.48-0.06-8.22-0.12
		c-0.59-0.01-0.98,0.18-1.3,0.68c-0.75,1.17-1.55,2.31-2.51,3.73c3.35,0,6.45,0,9.55,0c2.32,0.02,4.64-0.01,6.96,0.07
		c0.96,0.03,1.63-0.18,2.12-1.08c0.52-0.96,1.19-1.85,1.79-2.76c0.39-0.4,0.39-0.41-0.03-0.58
		C81.11,107.1,78.32,107.12,75.53,107.15z M77.87,116.62c-0.1-0.03-0.19-0.06-0.29-0.08c-2.79,0.01-5.59,0.02-8.38,0.03
		c-2.74-0.03-5.48-0.05-8.21-0.08c-0.48-0.01-0.93,0.01-1.23,0.47c-0.82,1.25-1.66,2.48-2.63,3.93c3.38,0,6.49,0,9.61,0
		c2.21,0.02,4.42-0.03,6.62,0.07c1.17,0.05,1.96-0.25,2.53-1.32c0.51-0.97,1.17-1.86,1.77-2.78
		C77.73,116.77,77.8,116.7,77.87,116.62z M54.51,125.92c-1.09-0.04-1.32,0.8-1.77,1.43c-0.44,0.61-0.79,1.27-1.18,1.92
		c-0.42,0.5-1.12,1.05,0.3,1.05c5.26,0,10.53,0.03,15.79,0.04c0.47,0,0.93,0.03,1.24-0.45c0.82-1.24,1.67-2.47,2.63-3.88
		c-3.2,0-6.1,0-8.99,0C59.86,125.99,57.18,126.01,54.51,125.92z M107.79,130.13c0.55-0.45,0.35-1.08,0.35-1.63
		c0.01-9.68,0.01-19.36,0-29.05c0-0.56,0.21-1.18-0.36-1.63c-3.42-0.46-6.86-0.08-10.29-0.21c-0.65-0.02-0.9,0.44-1.19,0.87
		c-7.03,10.37-14.05,20.73-21.08,31.1c-0.18,0.26-0.53,0.54-0.09,0.88c0.45,0.56,1.07,0.35,1.63,0.36c9.69,0.01,19.38,0.01,29.07,0
		c0.56,0,1.19,0.2,1.62-0.37C107.57,130.34,107.68,130.23,107.79,130.13z"/>
	<path class="st0" d="M264.7,135.4c-0.54,0-1.08-0.17-1.43,0.61c-1.78,3.98-5.1,5.11-9.18,4.98c-3.73-0.12-3.82-0.03-3.7-3.72
		c0.05-1.52-0.3-1.93-1.88-1.93c-14.16,0.07-28.32,0.02-42.48,0.07c-1.31,0-1.65-0.31-1.65-1.63c0.05-13.22,0.05-26.45,0.01-39.67
		c0-1.17,0.22-1.6,1.51-1.59c14.75,0.05,29.49-0.04,44.24,0.07c5.54,0.04,9.53,2.83,11.81,7.89c0.98,2.18,1.78,4.44,2.67,6.66
		c3.7,9.32,7.39,18.64,11.2,28.25C271.95,135.4,268.32,135.39,264.7,135.4z M211.24,130.81c12.39,0.01,24.77,0.01,37.16,0
		c0.56,0,1.19,0.2,1.63-0.36c0.68-1.02,0.38-2.18,0.27-3.21c-0.2-1.91,0.55-2.42,2.3-2.19c0.92,0.12,1.87,0.04,2.8,0.02
		c3.49-0.09,6.09,1.34,7.66,4.48c0.35,0.71,0.81,0.85,1.52,0.83c1.17-0.04,2.33-0.01,3.5-0.01c0.32-0.61-0.13-1.04-0.3-1.48
		c-3.33-8.45-6.74-16.86-10.01-25.33c-1.24-3.22-3.35-5.23-6.71-5.93c-0.32-0.73-0.98-0.5-1.53-0.5c-12.77-0.01-25.55-0.01-38.32,0
		c-0.54,0-1.2-0.23-1.54,0.47c0,0.19,0,0.38-0.01,0.57c0,10.74,0,21.48,0,32.22C210.04,131.05,210.69,130.81,211.24,130.81z
		 M255.38,134.21c0.09,0.53-0.38,1.28,0.36,1.54c0.61,0.22,1.26-0.02,1.82-0.4c1.22-0.84,1.61-2.43,0.89-3.72
		c-0.56-1-1.46-1.72-2.56-1.44c-1.03,0.26-0.33,1.38-0.51,2.09c-0.06,0.22-0.01,0.47-0.01,0.7
		C255.37,133.39,255.31,133.81,255.38,134.21z"/>
	<path class="st0" d="M123.58,94.63c0-0.57,0.38-1.32-0.46-1.7c0.35-0.78,1.03-0.35,1.52-0.35c22.58-0.03,45.16-0.01,67.74-0.06
		c1.44,0,1.83,0.33,1.83,1.8c-0.06,13.1-0.06,26.21,0,39.31c0.01,1.49-0.4,1.8-1.83,1.79c-22.41-0.05-44.81-0.03-67.22-0.04
		c-0.53,0-1.05-0.04-1.58-0.06C123.6,121.77,123.6,108.2,123.58,94.63z M129.95,130.81c19.05,0.02,38.1,0.02,57.16,0
		c0.61,0,1.3,0.25,1.81-0.35c0.11-0.12,0.22-0.23,0.34-0.35c0.57-0.44,0.36-1.08,0.36-1.63c0.01-9.65,0.01-19.3,0-28.95
		c0-0.61,0.23-1.31-0.42-1.78c-0.11-0.02-0.18-0.09-0.2-0.2c-0.46-0.66-1.16-0.44-1.77-0.44c-19.11-0.01-38.21-0.01-57.32,0.01
		c-0.59,0-1.32-0.29-1.71,0.5c0,0.18,0,0.36,0,0.53c0,10.75-0.01,21.5-0.01,32.24C128.64,131.08,129.35,130.81,129.95,130.81z"/>
	<path class="st0" d="M240.92,224.67c-8.33,0.14-15-7.02-15.21-14.47c-0.22-7.78,6.76-15.07,14.63-15.24
		c7.94-0.17,15.65,7.36,14.96,14.76C256,217.52,248.43,224.55,240.92,224.67z M230.79,209.89c0.05,5.3,4.48,9.7,9.77,9.71
		c5.36,0.01,9.82-4.48,9.78-9.86c-0.03-5.31-4.44-9.7-9.75-9.7C235.23,200.04,230.74,204.55,230.79,209.89z"/>
	<path class="st0" d="M240.46,203.93c3.18-0.09,5.98,2.64,6.01,5.85c0.03,3.2-2.73,5.95-5.93,5.92c-3.18-0.03-5.79-2.66-5.81-5.84
		C234.7,206.69,237.28,204.02,240.46,203.93z M240.82,207.39c-1.32-0.09-2.71,1.14-2.72,2.43c-0.01,1.12,1.19,2.39,2.33,2.46
		c1.19,0.07,2.53-1.15,2.57-2.36C243.04,208.74,241.94,207.47,240.82,207.39z"/>
	<path class="st0" d="M191.71,160.96c-0.14-1.56,0.64-3.59-0.32-4.56c-1.05-1.05-3.1-0.3-4.71-0.33c-3.15-0.06-6.3,0.01-9.46-0.04
		c-0.98-0.02-1.37,0.28-1.31,1.29c0.07,1.22,0.02,2.45,0.02,3.68C181.19,160.98,186.45,160.97,191.71,160.96z"/>
	<path class="st0" d="M42.13,156.04c0,1.66,0.01,3.31,0.01,4.97c39.85,0.01,79.7,0.01,119.56,0.01c0.17,0,0.35-0.03,0.52-0.04
		c-0.11-1.56,0.65-3.6-0.3-4.57c-1.04-1.07-3.1-0.34-4.71-0.34C118.84,156.04,80.49,156.04,42.13,156.04z"/>
	<path class="st0" d="M230.67,160.88c-0.02-1.22-0.09-2.44-0.05-3.66c0.03-0.93-0.35-1.19-1.24-1.18c-4.42,0.03-8.85,0.04-13.28,0
		c-1.03-0.01-1.31,0.39-1.26,1.33c0.07,1.22,0.04,2.44,0.05,3.67C220.16,160.94,225.42,161.21,230.67,160.88z"/>
	<path class="st0" d="M234.12,50.43c-10.81-0.01-21.61-0.01-32.42,0c-0.59,0-1.36-0.27-1.55,0.68c0.01,2.93,0.1,5.85-0.02,8.77
		c-0.07,1.5,0.4,1.8,1.84,1.79c16.79-0.05,33.58-0.04,50.38-0.03c8.07,0.01,15.16,5.61,16.9,13.44c0.57,2.55,1.23,5.23-1.19,7.39
		c1.45,1.3,2.77,2.62,3.85,4.15c1.08,1.54,1.88,3.22,2.6,4.95c2.45,5.87,4.91,11.73,7.36,17.59c4.38,10.5,8.77,20.99,13.11,31.5
		c0.57,1.39,0.46,3.35,1.42,4.2c1.06,0.94,3.02,0.23,4.58,0.31c3,0.16,5.55,2.49,5.6,5.46c0.1,5.2,0.1,10.41-0.01,15.62
		c-0.06,2.82-2.52,5.14-5.34,5.33c-0.93,0.06-1.88,0.12-2.8,0.01c-1.43-0.18-1.72,0.4-1.72,1.74c0.06,9.77,0.06,19.54,0,29.31
		c-0.01,1.25,0.27,1.92,1.46,2.52c3.28,1.65,4.61,5.59,3.52,9.76c-0.86,3.31-3.65,5.39-7.28,5.41c-3.74,0.02-7.49,0-11.23,0.01
		c-1.83,0-3.61-0.42-4.79-1.78c-1.13-1.3-2.39-1.53-3.87-1.34c-2.14,0.28-3.89-0.15-4.81-2.34c-0.02-0.05-0.19-0.04-0.33-0.07
		c-0.12,0.45-0.23,0.91-0.34,1.36c-2.89,11.25-9.82,18.79-21.07,21.74c-11.26,2.95-20.99-0.24-29.03-8.63
		c-0.48-0.5-0.81-1.16-1.49-1.45c-0.48-1.22-1.24-2.27-2.11-3.24c-1.66-3.45-3.13-6.97-3.62-10.87c-0.74,0.29-0.97,0.88-1.2,1.36
		c-0.84,1.73-2.1,2.2-4.03,2.19c-25.44-0.08-50.88-0.06-76.32-0.02c-1.29,0-2.16-0.37-3.01-1.31c-2.43-2.65-4.94-5.21-7.81-8.2
		c0,2.21,0.19,3.91-0.03,5.56c-2.78,20.87-25.1,32.05-43.42,21.78c-0.56-0.32-1.1-0.67-1.76-0.72c-0.95-1.52-2.7-2.16-3.83-3.49
		c-1.46-1.16-2.34-2.89-3.88-3.97c-0.27-1.3-1.09-2.31-1.78-3.39c-2.36-4.58-3.47-9.46-3.41-15.02c-2.26,2.82-4.29,5.29-6.24,7.81
		c-0.52,0.67-1.05,0.95-1.9,0.93c-2.87-0.05-5.73,0-8.6-0.03c-0.76-0.01-1.28,0.19-1.81,0.78c-1.48,1.67-3.41,2.38-5.63,2.37
		c-3.63-0.02-7.26,0-10.88-0.01c-3.76-0.01-6.68-2.12-7.49-5.4c-1.08-4.38,0.34-8.17,3.85-9.96c0.81-0.41,1.1-0.81,1.09-1.7
		c-0.05-3.69-0.05-7.37,0-11.06c0.02-1.03-0.19-1.48-1.33-1.4c-1.51,0.1-3.04,0.05-4.56,0.02c-5.31-0.11-9.63-4.32-9.65-9.62
		c-0.06-13.11-0.05-26.22-0.01-39.33c0.01-4.62,3.17-8.36,7.69-9.43c1.91-0.45,3.85-0.3,5.77-0.21c1.63,0.08,2.16-0.27,2.14-2.05
		c-0.12-7.55-0.18-15.1-0.02-22.65c0.23-10.56,4.8-18.87,13.61-24.74c1.34-0.89,2.07-1.43,1.85-3.47
		c-1.07-10.06,6.09-17.74,16.17-17.74c15.27,0,30.55-0.04,45.82,0.05c1.86,0.01,2.25-0.54,2.14-2.23c-0.15-2.16-0.13-4.33,0-6.49
		c0.09-1.49-0.26-1.96-1.87-1.95c-14.4,0.07-28.79,0.04-43.19,0.04c-3.85,0-3.8,0-3.78-3.86c0-1.17,0.44-1.33,1.44-1.31
		c2.52,0.06,5.04-0.08,7.55,0.06c1.46,0.08,1.71-0.47,1.69-1.77c-0.07-4.97,0-9.95-0.05-14.92c-0.01-1.01,0.18-1.23,1.26-1.08
		c5.48,0.74,10.29,2.93,14.6,6.34c3.86,3.05,6.37,7.08,8.38,11.48c0.44,1,1.34,0.53,2,0.53c32.74,0.03,65.47,0.02,98.21,0.02
		c14.73,0,29.46,0,44.19-0.01c0.72,0,1.55,0.29,2.11-0.47c0.94,0.7,0.98,4.34,0.04,4.94c-0.03,0.02-0.11-0.03-0.17-0.04
		C235.34,50.14,234.65,50.43,234.12,50.43z M127.8,208.84c0.59,1.34,1.69,2.23,2.79,3.12c1.05,0.54,2.18,0.24,3.27,0.24
		c21.58,0.03,43.16,0.03,64.75,0.04c1.52,0,3.04,0,4.56-0.03c0.47-0.01,1.13,0.25,1.2-0.6c0-0.94,0-1.88,0-2.82
		c-0.28-0.56-0.81-0.37-1.24-0.37c-24.86,0-49.73,0.01-74.59,0.02c-0.24,0-0.47-0.01-0.71-0.01
		C127.4,208.55,127.56,208.69,127.8,208.84z M30,99.83c-0.88,2.22-0.81,2.25,1.5,2.24c3.78-0.01,7.56-0.03,11.34-0.05
		c1-0.1,1.39,0.22,1.39,1.35c0,3.86,0.06,3.86-3.8,3.86c-3.38,0-6.76,0.05-10.13-0.03c-1.17-0.03-1.73,0.22-1.56,1.5
		c0.11,0.8,0.05,1.63,0.07,2.44c0.41,0.64,1.05,0.3,1.57,0.31c3.7,0.04,7.4,0.03,11.1,0.04c0,1.65,0,3.3,0,4.95
		c-3.8,0.01-7.6,0.06-11.4,0.01c-1.05-0.01-1.41,0.25-1.4,1.36c0.06,4.79,0.04,9.59,0.01,14.39c-0.01,0.79,0.22,1.26,0.89,1.71
		c2.78,1.82,4.23,4.46,4.43,7.76c0.05,0.85,0.32,1.1,1.14,1.08c2.22-0.06,4.44-0.06,6.66-0.08c0.7,0.02,1.4,0.06,2.1,0.06
		c61.53,0,123.06-0.18,184.59,0.09c26.05,0.12,45.76,12.14,59.26,34.36c1.27,2.09,2.23,4.36,3.32,6.55
		c0.18,0.35,0.19,0.81,0.73,0.83c0.58-0.52,0.33-1.21,0.33-1.82c0.01-10.82,0.02-21.64-0.01-32.46c0-0.64,0.36-1.44-0.51-1.87
		c-0.84-6.67-4.15-12.47-6.63-18.54c-4.96-12.14-10.18-24.18-15.16-36.32c-2.35-5.73-6.39-9.19-12.47-10.28
		c-0.16-0.49-0.55-0.54-0.98-0.54c-0.53,0-1.05,0-1.58,0c-67.08,0-134.16,0-201.25,0.02c-0.76,0-1.65-0.39-2.29,0.41
		c-5.4,0.69-10.29,2.55-14.39,6.24c-0.99,0.89-1.97,1.8-2.84,3.14c4.45,0,8.73,0,13.01,0c1.06,0.11,0.64,0.93,0.65,1.46
		c0.07,3.48,0.06,3.48-3.32,3.65c-0.28,0.01-0.56,0.11-0.84,0.17c-4-0.24-7.99-0.15-11.99-0.03C30.05,97.68,30.31,99.06,30,99.83z
		 M52.29,66.95c-4.51,0.8-8.34,5.51-8.38,10.02c-0.01,0.94,0.34,1.2,1.24,1.19c4.39-0.05,8.77-0.05,13.16-0.06
		c0.64,0.01,1.29,0.04,1.93,0.04c62.57,0,125.13,0,187.7,0c0.7,0,1.4-0.04,2.1-0.06c4.27,0.02,8.54-0.04,12.81,0.09
		c1.7,0.05,1.8-0.65,1.48-1.96c-1.32-5.54-6.27-9.48-12.16-9.57c-3.57-0.05-7.14,0.01-10.71,0.01c-58.58,0-117.15,0-175.73,0.01
		c-0.82,0-1.63,0.07-2.45,0.11C59.61,66.54,55.93,66.31,52.29,66.95z M24.22,185.62c2.81-0.02,4.59-1.78,4.59-4.58
		c0.01-12.85-0.1-25.7,0.07-38.54c0.05-3.73-3.18-5.63-6.45-5.25c-0.69,0.08-1.37,0.22-2.07,0.24c-0.7,0-1.4,0-2.1,0
		c-3.43,0-5.24,1.67-5.25,5.11c-0.04,12.62-0.04,25.24,0,37.86c0.01,3.45,1.82,5.14,5.25,5.14c0.7,0,1.4,0,2.1,0
		C21.65,185.62,22.93,185.63,24.22,185.62z M68.31,205.59c-1.33-0.11-1.83,0.57-1.9,1.68c-0.45,6.4,1.03,12.22,5.06,17.34
		c3.69,4.68,8.43,7.56,14.25,8.72c6.68,1.18,12.95,0.15,18.47-3.91c5.7-4.19,9.24-9.73,10.03-16.94c0.21-1.94,0.16-3.81-0.03-5.72
		c-0.1-0.94-0.47-1.18-1.32-1.17c-2.34,0.03-4.68,0.02-7.02,0c-0.79-0.01-1.13,0.1-0.92,1.09c1.04,4.83-0.22,9.11-3.37,12.86
		c-2.39,2.85-5.45,4.66-9.13,4.99c-8.59,0.77-14.81-3.87-16.71-12.28c-0.36-1.6-0.43-3.28,0.03-4.86c0.43-1.5,0.1-2.03-1.46-1.8
		c-0.52,0.08-1.05,0.02-1.58,0.02C71.22,205.62,69.76,205.72,68.31,205.59z M255.32,228.77c6.73-5.4,9.73-12.47,9.09-21.08
		c-0.04-0.61-0.38-1.09-0.71-1.57c-2.27-3.32-4.53-6.64-6.78-9.98c-1.24-1.83-2.98-2.78-5.15-2.79c-6.66-0.03-13.33,0-19.99,0.01
		c-1.23-0.01-2.47-0.12-3.68,0.01c-1.92,0.21-3.58,1.02-4.72,2.68c-1.91,2.79-3.8,5.59-5.7,8.38c-0.6,0.89-0.96,1.86-1.02,2.93
		c-0.38,6.07,0.8,11.7,4.53,16.66c3.69,4.91,8.49,8.06,14.51,9.33c0.68,0.14,1.37,0.22,2.06,0.33
		C244.23,234.26,250.2,232.88,255.32,228.77z M193.34,50.78c-27.88-0.01-55.75-0.01-83.63,0c-0.59,0-1.35-0.28-1.56,0.67
		c0.01,2.87,0.1,5.73-0.01,8.59c-0.05,1.32,0.31,1.64,1.63,1.64c14.27-0.05,28.54-0.03,42.81-0.03c13.63,0,27.25-0.02,40.88,0.03
		c1.38,0.01,1.8-0.34,1.73-1.73c-0.12-2.33-0.02-4.68-0.04-7.02c-0.01-0.56,0.21-1.18-0.28-1.67
		C194.56,50.48,193.87,50.78,193.34,50.78z M289.01,204.25c2.37-0.02,2.39-0.01,2.05-2.28c-1.3-8.67-4.13-16.81-8.83-24.21
		c-9.96-15.67-24.11-25.31-42.33-28.95c-0.63-0.12-1.28-0.11-1.92-0.16c-2.66-0.83-5.43-0.78-8.15-0.85
		c-6.26-0.17-12.52-0.04-18.78-0.08c-1.11-0.01-1.51,0.28-1.51,1.47c0.04,19.08,0.03,38.16,0.03,57.23c0,0.11,0.06,0.21,0.16,0.61
		c1.44-2.1,2.78-4.03,4.11-5.97c1.65-2.42,3.3-4.83,4.91-7.27c2.53-3.84,6.15-5.62,10.67-5.63c7.08-0.02,14.16,0.02,21.24-0.01
		c4.77-0.02,8.42,1.9,11.08,5.89c3.72,5.6,7.54,11.14,11.32,16.7c0.29,0.43,0.55,0.99,0.96,1.22c0.72,0.4,1.57,0.77,1.7-0.68
		c0.31-3.53,2.25-5.78,5.56-6.91C283.86,204.32,286.44,204.27,289.01,204.25z M204.4,199.79c0-16.46,0.01-32.92-0.01-49.38
		c0-2.94,0.58-2.67-2.69-2.68c-0.29,0-0.58,0.05-0.87,0.07c-0.64-0.02-1.28-0.07-1.93-0.07c-51.61,0-103.21,0-154.82,0
		c-0.64,0-1.28,0.04-1.93,0.06c-2.16-0.02-4.32,0.02-6.48-0.1c-1.34-0.08-1.66,0.39-1.66,1.68c0.06,8.53,0.06,17.06,0.01,25.58
		c-0.02,2.73,0.35,5.49-0.28,8.2c-0.56,2.42-1.77,4.44-3.89,5.81c-0.82,0.53-1.17,1.11-1.15,2.12c0.07,3.85,0.07,7.71,0,11.56
		c-0.02,1.2,0.3,1.66,1.56,1.6c2.04-0.09,4.09,0.05,6.13-0.05c2.15-0.1,4.03,0.49,5.73,1.76c1.35,1.44,2.37,3.06,2.44,5.09
		c0.03,0.77,0.43,1.06,1.08,1.07c1.81,0.05,3.62,0.06,5.43,0.08c0.76,0.01,1.1-0.61,1.49-1.1c1.18-1.45,2.33-2.92,3.49-4.4
		c3.32-4.23,7.62-6.37,13.04-6.35c14.39,0.04,28.77,0.02,43.16,0.01c2.93,0,5.68,0.61,8.21,2.11c0.72,0.42,1.43,0.7,2.3,0.7
		c25.91-0.01,51.82,0,77.73,0c0.12,0,0.23-0.02,0.35-0.03C204.4,203.27,204.4,203.27,204.4,199.79z M94.22,214.22
		c-2.09,1.84-5.19,1.94-7.42,0.24c-2.62-1.99-2.9-4.73-0.83-8.91c-1.27,0-2.48,0.03-3.68-0.01c-0.9-0.03-0.98,0.65-1.18,1.24
		c-1.34,3.93,0.09,8.39,3.51,10.91c3.46,2.54,8.09,2.52,11.59-0.07c3.36-2.49,4.78-7.07,3.42-10.95c-0.29-0.83-0.72-1.21-1.64-1.14
		c-1.04,0.08-2.1,0.02-3.34,0.02C96.84,209.22,96.67,212.06,94.22,214.22z M73.74,35.89C70.18,34,70.17,34.02,70.17,38
		c0,2.22,0.01,4.45-0.01,6.67c-0.01,0.73,0.09,1.23,1.02,1.22c4.02-0.03,8.04-0.01,12.26-0.01C81.27,41.31,77.97,38.14,73.74,35.89z
		 M26.17,209.35c-2.02,0.03-2.64,0.71-2.65,2.81c-0.02,2.31,0.56,3.06,2.56,3.08c3.62,0.04,7.25,0.04,10.87,0
		c1.99-0.02,2.64-0.85,2.61-3.07c-0.03-2.06-0.7-2.79-2.69-2.82c-1.81-0.03-3.62-0.01-5.43-0.01
		C29.67,209.35,27.92,209.32,26.17,209.35z M294.44,215.24c1.89-0.06,2.41-0.77,2.39-3.06c-0.02-2.1-0.57-2.8-2.45-2.82
		c-3.68-0.04-7.36-0.04-11.03,0c-1.93,0.02-2.47,0.73-2.47,2.97c0,2.19,0.56,2.87,2.53,2.92c1.81,0.04,3.62,0.01,5.43,0.01
		C290.71,215.25,292.58,215.3,294.44,215.24z M296.72,165.41c-0.02,0.89,0.25,1.2,1.18,1.23c3.72,0.15,3.72,0.18,3.72-3.46
		c0-3.63-0.06-7.26,0.03-10.88c0.04-1.61-0.53-2.3-2.14-2.13c-0.4,0.04-0.83,0.05-1.23,0c-1.22-0.17-1.63,0.3-1.58,1.55
		c0.1,2.28,0.03,4.56,0.03,6.85C296.73,160.85,296.76,163.13,296.72,165.41z M92.71,209.77c-0.05-1.44-0.79-2.29-2.24-2.37
		c-1.39-0.08-2.63,1.15-2.58,2.51c0.04,1.29,1.22,2.4,2.54,2.39C91.81,212.28,92.76,211.25,92.71,209.77z"/>
</g>
<g>
	<path class="st0" d="M445.04,142.85c0,5.74-0.91,11.01-2.73,15.8c-1.82,4.8-4.38,8.92-7.7,12.38c-3.31,3.46-7.3,6.14-11.95,8.05
		s-9.79,2.86-15.43,2.86c-5.63,0-10.77-0.95-15.4-2.86c-4.63-1.91-8.61-4.59-11.92-8.05c-3.31-3.46-5.88-7.58-7.7-12.38
		c-1.82-4.8-2.73-10.06-2.73-15.8c0-5.74,0.91-11.01,2.73-15.8c1.82-4.79,4.38-8.93,7.7-12.41c3.32-3.48,7.29-6.17,11.92-8.1
		c4.63-1.93,9.77-2.89,15.4-2.89c5.63,0,10.77,0.96,15.43,2.89c4.65,1.92,8.64,4.62,11.95,8.1c3.32,3.48,5.88,7.61,7.7,12.41
		S445.04,137.11,445.04,142.85z M434.4,142.85c0-4.71-0.64-8.93-1.92-12.67c-1.28-3.74-3.1-6.91-5.45-9.49
		c-2.35-2.58-5.21-4.57-8.56-5.96c-3.35-1.39-7.1-2.09-11.23-2.09c-4.1,0-7.83,0.7-11.17,2.09c-3.35,1.39-6.21,3.38-8.58,5.96
		c-2.37,2.58-4.2,5.75-5.48,9.49c-1.28,3.74-1.92,7.97-1.92,12.67s0.64,8.92,1.92,12.65c1.28,3.73,3.11,6.88,5.48,9.47
		c2.37,2.58,5.23,4.56,8.58,5.94c3.35,1.37,7.08,2.06,11.17,2.06c4.13,0,7.88-0.69,11.23-2.06c3.35-1.37,6.2-3.35,8.56-5.94
		c2.35-2.58,4.17-5.74,5.45-9.47C433.75,151.77,434.4,147.56,434.4,142.85z"/>
	<path class="st0" d="M487.33,126.97v34.54c0,4.1,0.94,7.27,2.83,9.52c1.89,2.25,4.74,3.37,8.56,3.37c2.78,0,5.4-0.66,7.86-1.98
		c2.46-1.32,4.72-3.15,6.79-5.51v-39.94h9.52v54.17h-5.67c-1.35,0-2.21-0.66-2.57-1.98l-0.75-5.83c-2.35,2.6-4.99,4.7-7.91,6.28
		c-2.92,1.59-6.27,2.38-10.05,2.38c-2.96,0-5.57-0.49-7.83-1.47c-2.26-0.98-4.16-2.36-5.69-4.14c-1.53-1.78-2.68-3.94-3.45-6.47
		c-0.77-2.53-1.15-5.33-1.15-8.4v-34.54H487.33z"/>
	<path class="st0" d="M576.36,181.99c-4.28,0-7.57-1.19-9.87-3.58c-2.3-2.39-3.45-5.83-3.45-10.32v-33.15h-6.52
		c-0.57,0-1.05-0.17-1.44-0.51c-0.39-0.34-0.59-0.86-0.59-1.58v-3.8l8.88-1.12l2.19-16.74c0.07-0.54,0.3-0.97,0.69-1.31
		c0.39-0.34,0.89-0.51,1.5-0.51h4.81v18.66h15.51v6.9h-15.51v32.51c0,2.28,0.55,3.97,1.66,5.08c1.1,1.11,2.53,1.66,4.28,1.66
		c1,0,1.86-0.13,2.59-0.4c0.73-0.27,1.36-0.56,1.9-0.88c0.54-0.32,0.99-0.62,1.36-0.88c0.37-0.27,0.7-0.4,0.99-0.4
		c0.5,0,0.94,0.3,1.34,0.91l2.78,4.55c-1.64,1.53-3.62,2.74-5.94,3.61C581.21,181.56,578.82,181.99,576.36,181.99z"/>
	<path class="st0" d="M652.23,135.9c-0.43,0.78-1.09,1.18-1.98,1.18c-0.54,0-1.14-0.2-1.82-0.59c-0.68-0.39-1.51-0.83-2.49-1.31
		c-0.98-0.48-2.15-0.93-3.5-1.34c-1.35-0.41-2.96-0.62-4.81-0.62c-1.6,0-3.05,0.2-4.33,0.62s-2.38,0.97-3.29,1.68
		c-0.91,0.71-1.6,1.54-2.09,2.49c-0.48,0.95-0.72,1.97-0.72,3.08c0,1.39,0.4,2.55,1.2,3.48c0.8,0.93,1.86,1.73,3.18,2.41
		c1.32,0.68,2.81,1.27,4.49,1.79c1.67,0.52,3.39,1.07,5.16,1.66c1.77,0.59,3.48,1.24,5.16,1.95c1.68,0.71,3.17,1.6,4.49,2.67
		c1.32,1.07,2.38,2.38,3.18,3.93c0.8,1.55,1.2,3.41,1.2,5.59c0,2.5-0.45,4.8-1.34,6.92c-0.89,2.12-2.21,3.96-3.96,5.51
		c-1.75,1.55-3.88,2.77-6.42,3.66s-5.46,1.34-8.77,1.34c-3.78,0-7.2-0.62-10.27-1.85c-3.06-1.23-5.67-2.81-7.81-4.73l2.25-3.63
		c0.28-0.46,0.62-0.82,1.02-1.07c0.39-0.25,0.91-0.37,1.55-0.37c0.64,0,1.32,0.25,2.03,0.75c0.71,0.5,1.58,1.05,2.59,1.66
		c1.02,0.61,2.25,1.16,3.69,1.66c1.44,0.5,3.25,0.75,5.43,0.75c1.85,0,3.48-0.24,4.87-0.72c1.39-0.48,2.55-1.13,3.48-1.95
		c0.93-0.82,1.61-1.77,2.06-2.83c0.45-1.07,0.67-2.21,0.67-3.42c0-1.5-0.4-2.74-1.2-3.72c-0.8-0.98-1.86-1.82-3.18-2.51
		c-1.32-0.7-2.83-1.3-4.52-1.82c-1.69-0.52-3.42-1.06-5.19-1.63c-1.76-0.57-3.49-1.22-5.19-1.95c-1.69-0.73-3.2-1.65-4.52-2.75
		c-1.32-1.11-2.38-2.47-3.18-4.09c-0.8-1.62-1.2-3.59-1.2-5.91c0-2.07,0.43-4.06,1.28-5.96c0.86-1.91,2.1-3.58,3.74-5.03
		c1.64-1.44,3.65-2.59,6.04-3.45c2.39-0.85,5.12-1.28,8.18-1.28c3.56,0,6.76,0.56,9.6,1.68c2.83,1.12,5.29,2.66,7.35,4.63
		L652.23,135.9z"/>
	<path class="st0" d="M701.75,109.97c0,0.93-0.19,1.79-0.56,2.59c-0.37,0.8-0.87,1.52-1.5,2.14c-0.63,0.62-1.35,1.11-2.17,1.47
		c-0.82,0.36-1.69,0.54-2.62,0.54c-0.93,0-1.79-0.18-2.59-0.54c-0.8-0.36-1.52-0.85-2.14-1.47s-1.11-1.34-1.47-2.14
		c-0.36-0.8-0.54-1.67-0.54-2.59s0.18-1.81,0.54-2.65c0.36-0.84,0.85-1.57,1.47-2.19s1.34-1.11,2.14-1.47
		c0.8-0.36,1.67-0.54,2.59-0.54c0.93,0,1.8,0.18,2.62,0.54c0.82,0.36,1.54,0.85,2.17,1.47c0.62,0.62,1.12,1.35,1.5,2.19
		C701.56,108.16,701.75,109.04,701.75,109.97z M699.61,126.97v54.17h-9.52v-54.17H699.61z"/>
	<path class="st0" d="M775.91,181.14c-1.35,0-2.21-0.66-2.57-1.98l-0.85-6.58c-2.32,2.82-4.97,5.07-7.94,6.76
		c-2.98,1.69-6.39,2.54-10.24,2.54c-3.1,0-5.92-0.6-8.45-1.79c-2.53-1.19-4.69-2.95-6.47-5.27c-1.78-2.32-3.15-5.2-4.12-8.66
		c-0.96-3.46-1.44-7.43-1.44-11.92c0-3.99,0.54-7.71,1.6-11.15c1.07-3.44,2.61-6.42,4.63-8.96c2.01-2.53,4.46-4.52,7.35-5.96
		c2.89-1.44,6.17-2.17,9.84-2.17c3.32,0,6.15,0.56,8.5,1.69c2.35,1.12,4.46,2.7,6.31,4.73v-30.05h9.52v78.76H775.91z M757.46,174.18
		c3.1,0,5.82-0.71,8.15-2.14c2.33-1.42,4.48-3.44,6.44-6.04v-26.2c-1.75-2.35-3.66-4-5.75-4.95c-2.08-0.94-4.39-1.42-6.92-1.42
		c-5.06,0-8.95,1.8-11.66,5.4c-2.71,3.6-4.06,8.73-4.06,15.4c0,3.53,0.3,6.55,0.91,9.06s1.5,4.58,2.67,6.2
		c1.18,1.62,2.62,2.81,4.33,3.56S755.25,174.18,757.46,174.18z"/>
	<path class="st0" d="M840.4,126.11c3.24,0,6.24,0.54,8.98,1.63c2.74,1.09,5.11,2.66,7.11,4.71c2,2.05,3.56,4.58,4.68,7.59
		c1.12,3.01,1.68,6.44,1.68,10.29c0,1.5-0.16,2.49-0.48,2.99c-0.32,0.5-0.93,0.75-1.82,0.75h-36.04c0.07,3.42,0.54,6.4,1.39,8.93
		c0.86,2.53,2.03,4.64,3.53,6.34c1.5,1.69,3.28,2.96,5.35,3.8c2.07,0.84,4.38,1.26,6.95,1.26c2.39,0,4.45-0.28,6.18-0.83
		c1.73-0.55,3.22-1.15,4.46-1.79c1.25-0.64,2.29-1.24,3.13-1.79c0.84-0.55,1.56-0.83,2.16-0.83c0.78,0,1.39,0.3,1.82,0.91l2.67,3.48
		c-1.18,1.43-2.59,2.67-4.23,3.72c-1.64,1.05-3.4,1.92-5.27,2.59c-1.87,0.68-3.81,1.19-5.8,1.52s-3.97,0.51-5.94,0.51
		c-3.74,0-7.19-0.63-10.35-1.9s-5.88-3.12-8.18-5.56c-2.3-2.44-4.09-5.46-5.37-9.06c-1.28-3.6-1.92-7.73-1.92-12.4
		c0-3.78,0.58-7.31,1.74-10.59c1.16-3.28,2.82-6.12,5-8.53c2.17-2.41,4.83-4.29,7.97-5.67C832.95,126.8,836.48,126.11,840.4,126.11z
		 M840.61,133.12c-4.6,0-8.22,1.33-10.85,3.98c-2.64,2.65-4.28,6.34-4.92,11.04h29.46c0-2.21-0.3-4.23-0.91-6.07
		c-0.61-1.84-1.5-3.42-2.67-4.76c-1.17-1.34-2.61-2.37-4.3-3.1C844.72,133.49,842.79,133.12,840.61,133.12z"/>
	<path class="st0" d="M896.38,181.14v-54.17h5.45c1.03,0,1.75,0.2,2.14,0.59c0.39,0.39,0.66,1.07,0.8,2.03l0.64,8.45
		c1.85-3.78,4.14-6.73,6.87-8.85c2.73-2.12,5.93-3.18,9.6-3.18c1.5,0,2.85,0.17,4.06,0.51c1.21,0.34,2.33,0.81,3.37,1.42l-1.23,7.11
		c-0.25,0.89-0.8,1.34-1.66,1.34c-0.5,0-1.27-0.17-2.3-0.51c-1.04-0.34-2.48-0.51-4.33-0.51c-3.32,0-6.09,0.96-8.32,2.89
		c-2.23,1.92-4.09,4.72-5.59,8.4v34.49H896.38z"/>
	<path class="st0" d="M991.88,135.9c-0.43,0.78-1.09,1.18-1.98,1.18c-0.53,0-1.14-0.2-1.82-0.59c-0.68-0.39-1.51-0.83-2.49-1.31
		c-0.98-0.48-2.15-0.93-3.5-1.34c-1.35-0.41-2.96-0.62-4.81-0.62c-1.6,0-3.05,0.2-4.33,0.62c-1.28,0.41-2.38,0.97-3.29,1.68
		c-0.91,0.71-1.6,1.54-2.08,2.49c-0.48,0.95-0.72,1.97-0.72,3.08c0,1.39,0.4,2.55,1.2,3.48c0.8,0.93,1.86,1.73,3.18,2.41
		c1.32,0.68,2.82,1.27,4.49,1.79c1.68,0.52,3.4,1.07,5.16,1.66c1.76,0.59,3.48,1.24,5.16,1.95c1.68,0.71,3.17,1.6,4.49,2.67
		c1.32,1.07,2.38,2.38,3.18,3.93c0.8,1.55,1.2,3.41,1.2,5.59c0,2.5-0.45,4.8-1.34,6.92c-0.89,2.12-2.21,3.96-3.96,5.51
		s-3.89,2.77-6.42,3.66s-5.45,1.34-8.77,1.34c-3.78,0-7.2-0.62-10.27-1.85c-3.07-1.23-5.67-2.81-7.81-4.73l2.25-3.63
		c0.28-0.46,0.62-0.82,1.02-1.07c0.39-0.25,0.91-0.37,1.55-0.37c0.64,0,1.32,0.25,2.03,0.75c0.71,0.5,1.58,1.05,2.59,1.66
		c1.02,0.61,2.25,1.16,3.69,1.66c1.44,0.5,3.25,0.75,5.43,0.75c1.85,0,3.48-0.24,4.87-0.72c1.39-0.48,2.55-1.13,3.48-1.95
		s1.61-1.77,2.06-2.83c0.45-1.07,0.67-2.21,0.67-3.42c0-1.5-0.4-2.74-1.2-3.72c-0.8-0.98-1.86-1.82-3.18-2.51
		c-1.32-0.7-2.83-1.3-4.52-1.82c-1.69-0.52-3.42-1.06-5.19-1.63c-1.77-0.57-3.49-1.22-5.19-1.95c-1.69-0.73-3.2-1.65-4.52-2.75
		c-1.32-1.11-2.38-2.47-3.18-4.09c-0.8-1.62-1.2-3.59-1.2-5.91c0-2.07,0.43-4.06,1.28-5.96c0.85-1.91,2.1-3.58,3.74-5.03
		c1.64-1.44,3.65-2.59,6.04-3.45c2.39-0.85,5.11-1.28,8.18-1.28c3.56,0,6.76,0.56,9.6,1.68c2.83,1.12,5.28,2.66,7.35,4.63
		L991.88,135.9z"/>
</g>
</svg>
